<svg width="20" height="20" viewBox="0 0 20 20" fill="none" xmlns="http://www.w3.org/2000/svg">
<g clip-path="url(#clip0_2174_1673)">
<path d="M18.3327 18.3332L16.666 16.6665M9.58268 17.4998C10.6223 17.4998 11.6518 17.2951 12.6123 16.8972C13.5728 16.4994 14.4455 15.9162 15.1806 15.1811C15.9157 14.446 16.4989 13.5732 16.8967 12.6127C17.2946 11.6523 17.4993 10.6228 17.4993 9.58317C17.4993 8.54354 17.2946 7.51409 16.8967 6.55359C16.4989 5.5931 15.9157 4.72037 15.1806 3.98524C14.4455 3.25011 13.5728 2.66697 12.6123 2.26912C11.6518 1.87127 10.6223 1.6665 9.58268 1.6665C7.48305 1.6665 5.46942 2.50058 3.98475 3.98524C2.50009 5.4699 1.66602 7.48354 1.66602 9.58317C1.66602 11.6828 2.50009 13.6964 3.98475 15.1811C5.46942 16.6658 7.48305 17.4998 9.58268 17.4998Z" stroke="white" stroke-opacity="0.56" stroke-width="1.5" stroke-linecap="round" stroke-linejoin="round"/>
</g>
<defs>
<clipPath id="clip0_2174_1673">
<rect width="20" height="20" fill="white"/>
</clipPath>
</defs>
</svg>
